<svg width="145" height="330" viewBox="0 0 145 330" fill="none" xmlns="http://www.w3.org/2000/svg">
<path d="M30.5699 231.457C28.8212 239.661 26.8104 254.283 25.5606 268.271C24.0422 285.265 23.7347 299.511 25.0727 308.602C25.9574 314.612 31.5469 318.767 37.5573 317.883C43.5677 316.998 47.7229 311.409 46.8382 305.398C45.8216 298.491 46.0999 285.6 47.4733 270.229C48.6503 257.056 50.5459 243.271 52.0866 236.043C53.353 230.102 49.5631 224.258 43.6214 222.992C37.6798 221.725 31.8364 225.515 30.5699 231.457Z" fill="#F5D0C3"/>
<path d="M75.0566 246.729C76.5773 254.079 78.0798 265.009 78.9266 275.509C79.9093 287.695 79.9543 298.338 78.939 305.444C78.0799 311.458 82.2588 317.03 88.2729 317.889C94.2869 318.749 99.8588 314.57 100.718 308.556C102.009 299.517 101.958 287.413 100.855 273.741C99.9387 262.374 98.3137 250.553 96.6004 242.271C95.3695 236.322 89.549 232.497 83.5998 233.728C77.6507 234.959 73.8258 240.78 75.0566 246.729Z" fill="#F5D0C3"/>
<path d="M64.5785 232L23.2034 210C23.2034 210 18.1179 219.965 14.4767 232C11.5445 241.691 9.82659 253.602 10.3284 256C11.4534 261.375 49.7035 269.25 55.2035 266.5C60.7035 263.75 64.5785 232 64.5785 232Z" fill="#232526"/>
<path d="M64.3285 249.75C88.3529 249.75 107.828 238.557 107.828 224.75C107.828 210.943 88.3529 199.75 64.3285 199.75C40.3041 199.75 20.8285 210.943 20.8285 224.75C20.8285 238.557 40.3041 249.75 64.3285 249.75Z" fill="#232526"/>
<path d="M61.8517 230.875L104.352 207.75C104.352 207.75 109.136 221.094 112.352 234.25C115.203 245.917 116.6 257.438 115.602 259.375C113.478 263.5 74.1002 270 70.3517 266.5C66.6032 263 61.8517 230.875 61.8517 230.875Z" fill="#232526"/>
<path d="M99.569 314.625C100.769 313.725 101.444 301.875 101.444 298.875C90.944 303.625 83.069 299.75 79.319 298.25C78.694 302 78.444 307.25 78.444 311.25C79.694 314.875 98.069 315.75 99.569 314.625Z" fill="#EDF0F4"/>
<path d="M124.694 328.358C124.694 316.683 115.23 307.22 103.556 307.22H100.386H97.671C97.671 307.22 97.9525 311.933 88.804 311.933C79.6557 311.933 78.389 307.22 78.389 307.22H77.2342C76.596 307.22 76.0782 307.738 76.0782 308.375V327.033C76.0782 328.63 77.3722 329.923 78.9682 329.923H123.128C123.993 329.923 124.694 329.223 124.694 328.358Z" fill="#3B3F45"/>
<mask id="mask0_107_252" style="mask-type:alpha" maskUnits="userSpaceOnUse" x="76" y="307" width="49" height="23">
<path fill-rule="evenodd" clip-rule="evenodd" d="M124.694 328.358C124.694 316.683 115.23 307.22 103.556 307.22H100.386H94.3092H88.2322H82.1552H76.0782V327.033C76.0782 328.63 77.3722 329.923 78.9682 329.923H123.128C123.993 329.923 124.694 329.223 124.694 328.358Z" fill="white"/>
</mask>
<g mask="url(#mask0_107_252)">
<path d="M119.055 315.598C122.7 313.538 121.271 317.62 124.546 319.353L131.482 332.648H76.2862C74.9377 330.72 70.065 320.73 73.944 319.353C81.069 316.825 93.6252 325.568 98.8267 325.278C104.028 324.99 118.919 327.155 118.044 322.533C117.033 317.188 115.732 317.475 119.055 315.598Z" fill="#555D65"/>
<path d="M97.057 318.195C98.7823 318.665 100.173 318.603 100.961 318.003C102.99 316.44 101.691 314.058 101.139 313.125C102.132 314.268 103.118 315.415 103.887 316.665C105.1 318.617 105.615 320.763 104.797 322.135C103.329 324.615 99.8023 323.47 97.5543 322.472L76.694 313.218L97.057 318.195Z" fill="#9C2525"/>
</g>
<path d="M105.315 313.26C104.888 313.947 105.552 314.793 106.321 314.541L112.655 312.466L110.399 315.676C110.124 316.068 110.218 316.609 110.61 316.884C111.001 317.16 111.542 317.065 111.818 316.674L115.574 311.329C116.054 310.646 115.388 309.747 114.595 310.006L108.046 312.152L110.111 308.83C110.529 308.158 109.9 307.322 109.138 307.538L102.294 309.479C102.552 309.213 102.881 308.932 103.28 308.633C103.553 308.428 104.517 307.753 104.693 307.621C105.076 307.334 105.154 306.79 104.866 306.407C104.579 306.024 104.035 305.947 103.652 306.234C103.506 306.344 102.543 307.018 102.24 307.246C100.687 308.41 99.838 309.472 99.838 310.83C99.838 311.405 100.388 311.821 100.941 311.664L107.455 309.818L105.315 313.26Z" fill="#7F8389"/>
<path fill-rule="evenodd" clip-rule="evenodd" d="M107.323 306.654C106.257 307.365 104.888 307.792 103.74 307.792C103.194 307.792 102.79 307.694 102.502 307.494C102.234 307.311 102.061 307.036 101.962 306.655C101.876 306.323 101.842 305.919 101.84 305.335C101.84 305.126 101.842 304.979 101.85 304.521L101.85 304.517L101.851 304.447C101.858 304.074 101.861 303.853 101.861 303.605C101.861 301.037 103.541 299.126 105.762 299.126C106.843 299.126 107.724 299.577 108.334 300.406C108.918 301.201 109.23 302.32 109.23 303.605C109.23 304.789 108.524 305.856 107.323 306.654ZM103.584 304.558C103.576 304.997 103.574 305.138 103.574 305.33C103.575 305.653 103.587 305.889 103.61 306.055C103.648 306.057 103.691 306.058 103.74 306.058C104.541 306.058 105.576 305.735 106.363 305.21C107.121 304.707 107.496 304.139 107.496 303.605C107.496 302.667 107.284 301.906 106.937 301.434C106.652 301.046 106.288 300.859 105.762 300.859C104.552 300.859 103.595 301.948 103.595 303.605C103.595 303.866 103.592 304.096 103.585 304.479L103.584 304.554L103.584 304.558Z" fill="#7F8389"/>
<path fill-rule="evenodd" clip-rule="evenodd" d="M102.286 307.607L102.436 307.412L102.455 307.218C102.457 307.207 102.459 307.197 102.461 307.182C102.477 307.083 102.474 306.95 102.45 306.807C102.411 306.561 102.312 306.278 102.14 305.888C102.078 305.747 102.037 305.658 101.892 305.348L101.879 305.322C101.77 305.09 101.691 304.918 101.609 304.735C100.842 303.01 99.1299 302.24 97.6242 302.911C96.8906 303.238 96.4275 303.808 96.2614 304.548C96.1023 305.257 96.2239 306.099 96.6073 306.96C96.9591 307.754 97.755 308.257 98.8123 308.431C99.7487 308.582 100.805 308.454 101.583 308.107C101.935 307.953 102.145 307.791 102.286 307.607ZM97.9532 304.927C97.9998 304.72 98.0992 304.597 98.3303 304.494C98.918 304.232 99.6302 304.553 100.025 305.44C100.113 305.637 100.196 305.818 100.319 306.079L100.331 306.103C100.46 306.38 100.499 306.464 100.554 306.588L100.573 306.632C100.13 306.758 99.5761 306.798 99.0913 306.719C98.5649 306.633 98.2786 306.452 98.1918 306.256C97.9503 305.714 97.8823 305.243 97.9532 304.927Z" fill="#7F8389"/>
<path d="M26.0875 314.625C24.8875 313.725 24.2125 301.875 24.2125 298.875C34.7125 303.625 42.5875 299.75 46.3375 298.25C46.9625 302 47.2125 307.25 47.2125 311.25C45.9625 314.875 27.5875 315.75 26.0875 314.625Z" fill="#EDF0F4"/>
<path d="M0.962498 328.358C0.962498 316.683 10.4262 307.22 22.1005 307.22H25.2702H27.9855C27.9855 307.22 27.704 311.933 36.8525 311.933C46.0007 311.933 47.2675 307.22 47.2675 307.22H48.4222C49.0605 307.22 49.5782 307.738 49.5782 308.375V327.033C49.5782 328.63 48.2842 329.923 46.6882 329.923H2.52825C1.6635 329.923 0.962498 329.223 0.962498 328.358Z" fill="#3B3F45"/>
<mask id="mask1_107_252" style="mask-type:alpha" maskUnits="userSpaceOnUse" x="0" y="307" width="50" height="23">
<path fill-rule="evenodd" clip-rule="evenodd" d="M0.962498 328.358C0.962498 316.683 10.4262 307.22 22.1005 307.22H25.2702H31.3472H37.4242H43.5012H49.5782V327.033C49.5782 328.63 48.2842 329.923 46.6882 329.923H2.52825C1.6635 329.923 0.962498 329.223 0.962498 328.358Z" fill="white"/>
</mask>
<g mask="url(#mask1_107_252)">
<path d="M6.60101 315.598C2.95601 313.538 4.38551 317.62 1.11026 319.353L-5.82524 332.648H49.3703C50.7188 330.72 55.5915 320.73 51.7125 319.353C44.5875 316.825 32.0313 325.568 26.8298 325.278C21.628 324.99 6.73776 327.155 7.61226 322.533C8.62376 317.188 9.92426 317.475 6.60101 315.598Z" fill="#555D65"/>
<path d="M28.5995 318.195C26.8743 318.665 25.4838 318.603 24.6958 318.003C22.6663 316.44 23.9658 314.058 24.517 313.125C23.5248 314.268 22.539 315.415 21.7695 316.665C20.5565 318.617 20.0418 320.763 20.86 322.135C22.3275 324.615 25.8543 323.47 28.1023 322.472L48.9625 313.218L28.5995 318.195Z" fill="#B42323"/>
</g>
<path d="M20.3415 313.26C20.7689 313.947 20.1046 314.793 19.3354 314.541L13.0012 312.466L15.2576 315.676C15.5329 316.068 15.4385 316.609 15.0468 316.884C14.6551 317.16 14.1143 317.065 13.839 316.674L10.0823 311.329C9.60269 310.646 10.2689 309.747 11.0614 310.006L17.611 312.152L15.5458 308.83C15.1275 308.158 15.7563 307.322 16.5185 307.538L23.3628 309.479C23.1041 309.213 22.7756 308.932 22.3763 308.633C22.1031 308.428 21.14 307.753 20.9634 307.621C20.5805 307.334 20.503 306.79 20.7904 306.407C21.0778 306.024 21.6212 305.947 22.0041 306.234C22.1503 306.344 23.1132 307.018 23.4167 307.246C24.9695 308.41 25.8185 309.472 25.8185 310.83C25.8185 311.405 25.2685 311.821 24.7151 311.664L18.2014 309.818L20.3415 313.26Z" fill="#7F8389"/>
<path fill-rule="evenodd" clip-rule="evenodd" d="M18.333 306.654C19.3991 307.365 20.7682 307.792 21.917 307.792C22.4629 307.792 22.866 307.694 23.154 307.494C23.4229 307.311 23.595 307.036 23.6941 306.655C23.7809 306.323 23.8144 305.919 23.8162 305.335C23.8168 305.126 23.8148 304.979 23.8064 304.521L23.8063 304.517L23.805 304.447C23.7982 304.074 23.7954 303.853 23.7954 303.605C23.7954 301.037 22.1156 299.126 19.8942 299.126C18.8136 299.126 17.9325 299.577 17.3228 300.406C16.7386 301.201 16.4263 302.32 16.4263 303.605C16.4263 304.789 17.1323 305.856 18.333 306.654ZM22.0729 304.558C22.081 304.997 22.0829 305.138 22.0823 305.33C22.0813 305.653 22.069 305.889 22.0468 306.055C22.0082 306.057 21.965 306.058 21.917 306.058C21.1158 306.058 20.0803 305.735 19.2936 305.21C18.5359 304.707 18.1602 304.139 18.1602 303.605C18.1602 302.667 18.3725 301.906 18.7197 301.434C19.0047 301.046 19.3686 300.859 19.8942 300.859C21.1046 300.859 22.0615 301.948 22.0615 303.605C22.0615 303.866 22.0645 304.096 22.0714 304.479L22.0728 304.554L22.0729 304.558Z" fill="#7F8389"/>
<path fill-rule="evenodd" clip-rule="evenodd" d="M23.3705 307.607L23.2204 307.412L23.201 307.218C23.1992 307.207 23.1978 307.197 23.1959 307.182C23.1798 307.083 23.1827 306.95 23.2063 306.807C23.2459 306.561 23.3442 306.278 23.5165 305.888C23.5787 305.747 23.6198 305.658 23.7649 305.348L23.7773 305.322C23.8866 305.09 23.9659 304.918 24.0474 304.735C24.8149 303.01 26.5266 302.24 28.0323 302.911C28.7659 303.238 29.229 303.808 29.3951 304.548C29.5542 305.257 29.4326 306.099 29.0492 306.96C28.6974 307.754 27.9015 308.257 26.8442 308.431C25.9078 308.582 24.8519 308.454 24.0731 308.107C23.7214 307.953 23.5113 307.791 23.3705 307.607ZM27.7033 304.927C27.6567 304.72 27.5573 304.597 27.3262 304.494C26.7385 304.232 26.0263 304.553 25.6316 305.44C25.5439 305.637 25.46 305.818 25.337 306.079L25.3257 306.103C25.1964 306.38 25.1576 306.464 25.1026 306.588L25.0835 306.632C25.5266 306.758 26.0803 306.798 26.5652 306.719C27.0916 306.633 27.3779 306.452 27.4647 306.256C27.7062 305.714 27.7742 305.243 27.7033 304.927Z" fill="#7F8389"/>
<path d="M18.3663 129.909C14.6324 135.62 8.94073 148.351 5.22321 160.455C2.78565 168.391 1.10926 176.138 0.391621 183.489C-0.485191 192.47 0.0763943 200.706 2.42032 208.05C4.51927 214.627 11.5523 218.257 18.1291 216.158C24.7058 214.059 28.3358 207.026 26.2368 200.45C23.8433 192.95 24.984 181.266 29.1214 167.795C30.8055 162.312 32.897 156.824 35.1267 151.836C36.8349 148.015 38.505 144.792 39.2906 143.591C43.0686 137.813 41.4472 130.066 35.6691 126.288C29.891 122.51 22.1443 124.131 18.3663 129.909Z" fill="#F5D0C3"/>
<path d="M94.8661 142.841C95.3958 143.651 97.6799 146.949 98.0931 147.559C99.5125 149.656 100.71 151.543 101.836 153.508C107.937 164.145 110.123 173.947 107.17 183.199C105.071 189.776 108.701 196.809 115.278 198.908C121.854 201.007 128.888 197.377 130.986 190.8C133.983 181.41 134.176 171.846 132.054 162.332C130.405 154.941 127.472 147.956 123.523 141.071C122.053 138.507 120.536 136.116 118.795 133.543C118.217 132.69 116.103 129.637 115.79 129.159C112.012 123.381 104.266 121.76 98.4876 125.538C92.7096 129.316 91.0882 137.063 94.8661 142.841Z" fill="#F5D0C3"/>
<path d="M40.9535 118.25V126.25L37.5785 139.5L36.5785 154.5L26.7035 165.375L19.5785 129.625L21.4535 119.375L26.7035 115.25L30.9535 118.25L34.4535 116.25L40.9535 118.25Z" fill="#4E5051"/>
<path d="M92.5785 119V127L95.9535 140.25L96.9535 155.25L106.828 166.125L113.953 130.375L112.078 120.125L106.828 116L102.578 119L99.0785 117L92.5785 119Z" fill="#4E5051"/>
<path d="M30.5351 128.221C31.8118 120.734 38.2708 115.282 45.8658 115.214L69.4468 115.004L91.5876 116.883C98.6441 117.483 104.427 122.707 105.571 129.696C108.082 145.03 112.018 172.074 112.018 190.954C112.018 218.68 117.489 221.332 109.018 224.965C100.546 228.598 32.7711 228.087 23.5175 222.454C14.2641 216.822 20.0176 210.954 20.0176 199.454C20.0176 191.012 26.8836 149.631 30.5351 128.221Z" fill="#B11717"/>
<rect x="46" y="153.504" width="43.75" height="35.25" fill="#4187FF"/>
<path fill-rule="evenodd" clip-rule="evenodd" d="M87.5 150.004H48C44.9624 150.004 42.5 152.466 42.5 155.504V186.754C42.5 189.792 44.9624 192.254 48 192.254H87.5C90.5376 192.254 93 189.792 93 186.754V155.504C93 152.466 90.5376 150.004 87.5 150.004ZM46 155.504C46 154.399 46.8954 153.504 48 153.504H87.5C88.6046 153.504 89.5 154.399 89.5 155.504V186.754C89.5 187.859 88.6046 188.754 87.5 188.754H48C46.8954 188.754 46 187.859 46 186.754V155.504Z" fill="#454748"/>
<path d="M50.0342 164.977C49.3314 165.416 49.1171 166.341 49.5556 167.044C49.9941 167.747 50.9194 167.961 51.6222 167.523L58.0895 163.488C59.0352 162.898 59.0298 161.519 58.0795 160.936L51.6122 156.971C50.906 156.538 49.9824 156.76 49.5494 157.466C49.1164 158.172 49.3379 159.096 50.0442 159.529L54.4439 162.226L50.0342 164.977Z" fill="white"/>
<path d="M59.0782 169.75H66.8109C67.6393 169.75 68.3109 169.078 68.3109 168.25C68.3109 167.422 67.6393 166.75 66.8109 166.75H59.0782C58.2498 166.75 57.5782 167.422 57.5782 168.25C57.5782 169.078 58.2498 169.75 59.0782 169.75Z" fill="white"/>
<path d="M66.4535 141C74.6687 141 81.3285 133.893 81.3285 125.125C81.3285 116.357 74.6687 109.25 66.4535 109.25C58.2383 109.25 51.5785 116.357 51.5785 125.125C51.5785 133.893 58.2383 141 66.4535 141Z" fill="#454748"/>
<rect x="57.0885" y="107.254" width="19.2142" height="28.8213" rx="9.60707" fill="#EBBAAA"/>
<rect x="57.0782" y="175.445" width="78.1072" height="55.25" rx="8.5" transform="rotate(-7.5 57.0782 175.445)" fill="#758191"/>
<rect x="59.8282" y="177.195" width="78.1072" height="55.25" rx="7.25" transform="rotate(-7.5 59.8282 177.195)" fill="#3E4349"/>
<path d="M107.036 196.755C106.518 193.016 108.608 192.642 108.695 192.57C107.284 190.996 105.409 190.967 104.75 191.027C103.164 191.074 101.814 192.333 101.019 192.438C100.226 192.543 98.8797 191.798 97.5845 191.992C95.8817 192.242 94.4337 193.413 93.7542 195.058C92.3862 198.369 94.3055 202.754 96.363 205.021C97.3677 206.132 98.5562 207.372 99.8732 207.149C101.139 206.931 101.519 206.092 103.059 205.89C104.6 205.687 105.139 206.456 106.485 206.25C107.851 206.045 108.56 204.71 109.235 203.374C110.019 201.828 110.247 200.473 110.26 200.4C110.229 200.39 107.39 199.247 107.034 196.755L107.036 196.755Z" fill="white"/>
<path d="M100.783 191.681C100.418 188.905 102.372 186.356 105.15 185.99C105.516 188.769 103.559 191.316 100.783 191.681Z" fill="white"/>
<path d="M99.7925 204.841C99.0145 210.936 103.325 216.507 109.419 217.285C116.41 218.178 122.574 215.203 126.815 209.74C129.798 205.897 131.783 200.955 132.995 195.2C135.048 185.459 134.793 173.393 132.381 163.591C130.912 157.625 124.885 153.979 118.919 155.447C112.953 156.916 109.307 162.943 110.775 168.909C112.397 175.495 112.58 184.176 111.223 190.612C110.807 192.588 110.284 194.151 109.788 195.171C104.714 195.643 100.465 199.576 99.7925 204.841Z" fill="#F5D0C3"/>
<path opacity="0.5" d="M102 86.3079C107.523 86.3079 112 81.4389 112 75.4329C112 69.4266 107.523 64.5579 102 64.5579C96.4773 64.5579 92 69.4266 92 75.4329C92 81.4389 96.4773 86.3079 102 86.3079Z" fill="#C99584"/>
<path opacity="0.5" d="M27 86.3079C21.4771 86.3079 17 81.4389 17 75.4329C17 69.4266 21.4771 64.5579 27 64.5579C32.5229 64.5579 37 69.4266 37 75.4329C37 81.4389 32.5229 86.3079 27 86.3079Z" fill="#C99584"/>
<path d="M27 51.2494C27 30.5389 43.7892 13.7495 64.5 13.7495C85.2107 13.7495 102 30.5389 102 51.2494V64.9609C102 67.1887 101.83 69.4129 101.49 71.6147L99.199 86.4912C96.5672 103.574 81.8675 116.182 64.5835 116.182C47.6667 116.182 33.1675 104.091 30.1293 87.4487L27.7106 74.1997C27.2378 71.6102 27 68.9832 27 66.3509V51.2494Z" fill="#F4D5CC"/>
<path d="M73.2854 49.7158C73.3645 48.3608 74.5086 47.321 75.8569 47.3625L75.9268 47.3656L90.9268 48.2406C92.3052 48.3211 93.3574 49.5036 93.277 50.882C93.1979 52.237 92.0538 53.2768 90.7055 53.2353L90.6356 53.2322L75.6356 52.3572C74.2572 52.2768 73.205 51.0942 73.2854 49.7158Z" fill="#393939"/>
<path d="M53.1356 47.3656C54.514 47.2852 55.6966 48.3374 55.777 49.7158C55.856 51.0708 54.8405 52.2366 53.4966 52.3521L53.4268 52.3572L38.4268 53.2322C37.0484 53.3126 35.8659 52.2604 35.7854 50.882C35.7064 49.527 36.7219 48.3612 38.0658 48.2457L38.1356 48.2406L53.1356 47.3656Z" fill="#393939"/>
<path fill-rule="evenodd" clip-rule="evenodd" d="M72.5312 56.1689H92.5312C94.4643 56.1689 96.0312 57.7359 96.0312 59.6689V72.1689C96.0312 76.173 92.7853 79.4189 88.7812 79.4189H82.5312C75.0755 79.4189 69.0312 73.3747 69.0312 65.9189V59.6689C69.0312 57.7359 70.5982 56.1689 72.5312 56.1689ZM92.5312 58.1689H72.5312C71.7028 58.1689 71.0312 58.8405 71.0312 59.6689V65.9189C71.0312 72.2702 76.18 77.4189 82.5312 77.4189H88.7812C91.6807 77.4189 94.0312 75.0684 94.0312 72.1689V59.6689C94.0312 58.8405 93.3597 58.1689 92.5312 58.1689Z" fill="white" fill-opacity="0.75"/>
<path fill-rule="evenodd" clip-rule="evenodd" d="M36.5312 56.1689H56.5312C58.4643 56.1689 60.0312 57.7359 60.0312 59.6689V65.9189C60.0312 73.3747 53.987 79.4189 46.5312 79.4189H40.2812C36.2772 79.4189 33.0312 76.173 33.0312 72.1689V59.6689C33.0312 57.7359 34.5982 56.1689 36.5312 56.1689ZM56.5312 58.1689H36.5312C35.7028 58.1689 35.0312 58.8405 35.0312 59.6689V72.1689C35.0312 75.0684 37.3818 77.4189 40.2812 77.4189H46.5312C52.8825 77.4189 58.0312 72.2702 58.0312 65.9189V59.6689C58.0312 58.8405 57.3597 58.1689 56.5312 58.1689Z" fill="white" fill-opacity="0.75"/>
<rect x="58.2812" y="59.6689" width="12.5" height="2" fill="white" fill-opacity="0.75"/>
<path fill-rule="evenodd" clip-rule="evenodd" d="M74.565 89.3201V92.7866C74.565 98.1116 70.2483 102.429 64.923 102.429C59.598 102.429 55.2812 98.1116 55.2812 92.7866V89.3201H74.565Z" fill="#393939"/>
<mask id="mask2_107_252" style="mask-type:alpha" maskUnits="userSpaceOnUse" x="55" y="87" width="20" height="16">
<path fill-rule="evenodd" clip-rule="evenodd" d="M74.4375 87.6689C74.5213 88.1804 74.565 88.7054 74.565 89.2407V92.7864C74.565 98.1114 70.2483 102.428 64.9233 102.428C59.598 102.428 55.2812 98.1114 55.2812 92.7864V89.2407C55.2812 88.7054 55.325 88.1804 55.4087 87.6689H74.4375Z" fill="white"/>
</mask>
<g mask="url(#mask2_107_252)">
<path d="M64.4087 105.821C61.1974 105.821 58.5942 104.403 58.5942 102.654C58.5942 100.906 61.1974 99.4878 64.4087 99.4878C67.62 99.4878 70.2233 100.906 70.2233 102.654C70.2233 104.403 67.62 105.821 64.4087 105.821Z" fill="#FF6C6C"/>
<rect width="19.2837" height="3.97675" transform="matrix(-1 0 0 1 74.5649 88.8198)" fill="white"/>
</g>
<path d="M24.6251 39.9327C24.4575 24.6802 37.8757 19.6828 35.5005 22.5577C33.125 25.4324 38.7507 32.5577 35.5005 34.8077C32.25 37.0577 35.8752 44.3079 34.1252 47.0579C32.3752 49.8079 29.5815 49.1829 28.0002 54.5579C26.4189 59.9329 27.7502 70.3972 27.7502 70.3972C27.8752 70.6829 27.7502 71.0579 27.5002 71.0579C27.2502 71.0579 26.8752 70.9329 26.7736 70.3972C26.7736 70.3972 24.875 62.6827 24.6251 39.9327Z" fill="#487FCE"/>
<path d="M104.248 40.3162C104.403 26.2317 92.0175 21.6171 94.21 24.2719C96.4025 26.9267 91.2097 33.5059 94.21 35.5837C97.2102 37.6614 93.864 44.3562 95.4795 46.8957C97.0947 49.4349 99.6735 48.8579 101.133 53.8212C102.593 58.7847 101.364 68.4474 101.364 68.4474C101.248 68.7114 101.364 69.0577 101.595 69.0577C101.825 69.0577 102.171 68.9422 102.265 68.4474C102.265 68.4474 104.018 61.3239 104.248 40.3162Z" fill="#487FCE"/>
<path d="M65.75 30.8072C44.9998 30.8072 30.6969 34.1822 27.5001 41.1042C24.3034 48.0262 25.0351 50.1822 24.8751 48.3072C24.7152 46.4322 24.5001 44.3387 24.5001 40.5572C24.5001 16.0102 41.6253 12.3067 57.125 13.8069C72.625 15.307 84.7153 30.8072 65.75 30.8072Z" fill="#1451A9"/>
<path d="M63.081 30.6847C82.1182 30.6847 101.215 23.5187 102 37.4322C105 42.1822 103.875 47.6824 104.25 39.9322C105.865 6.55735 55 -15.9108 29 22.9642C29 22.9642 44.0417 30.6847 63.081 30.6847Z" fill="#1451A9"/>
<path d="M63.4819 67.8789L67.0181 70.2364C65.8163 72.0392 64.875 74.7453 64.875 76.7139C64.875 78.6121 65.5605 79.4101 67.6592 79.4322L67.75 79.4326V83.6826C63.1142 83.6826 60.625 80.8823 60.625 76.7139C60.625 73.8901 61.7997 70.4623 63.3945 68.0116L63.4819 67.8789Z" fill="#EBBAAA"/>
<path d="M80.25 59.9189C81.8814 59.9189 83.2086 61.2211 83.2491 62.8427L83.25 62.9189V66.4189C83.25 68.0758 81.9069 69.4189 80.25 69.4189C78.6186 69.4189 77.2914 68.1168 77.2509 66.4952L77.25 66.4189V62.9189C77.25 61.2621 78.5931 59.9189 80.25 59.9189Z" fill="black"/>
<path d="M48.875 59.9189C50.5064 59.9189 51.8336 61.2211 51.8741 62.8427L51.875 62.9189V66.4189C51.875 68.0758 50.5319 69.4189 48.875 69.4189C47.2436 69.4189 45.9164 68.1168 45.8759 66.4952L45.875 66.4189V62.9189C45.875 61.2621 47.2181 59.9189 48.875 59.9189Z" fill="black"/>
<path d="M54.5 32.4324C44.875 30.0889 32.375 35.4324 24.625 36.8074C24.625 19.9324 42.625 2.68234 63.25 2.18234C83.875 1.68233 96.625 15.3073 99.875 22.0573C101.139 24.6824 98.25 29.5394 91.5 32.4324C83.625 35.8074 68.875 35.9324 54.5 32.4324Z" fill="#013581"/>
<path d="M54.2553 37.5177C63.5113 31.8612 67.7618 30.7015 72.2185 28.1302C69.1333 26.759 61.123 22.9281 57.0093 26.2192C55.249 28.516 52.1093 32.3752 54.2553 37.5177Z" fill="#013581"/>
<path d="M36.7197 40.1032C50.4755 32.1327 56.432 34.704 60.8887 32.1327C57.8032 30.7615 64.4882 20.963 42.5047 25.7047C35.9485 27.119 34.5737 34.961 36.7197 40.1032Z" fill="#013581"/>
<path d="M95.5855 11.0198L98.074 19.86L65.2702 14.7798L27.7812 21.633L27.8603 17.9956L30.5344 16.884L30.5965 14.0261L33.9677 14.0994L34.0637 9.68257L38.3977 9.77679L39.4345 6.42014L43.287 6.50389L45.648 3.17607L49.5985 4.30167L50.8475 2.24934L54.941 2.33832L54.9917 0L60.4792 2.45869L61.9747 0.151782L64.3317 2.54244L66.7905 0.256463L71.3147 2.69422L74.255 0.418712L77.3345 2.82507L79.5015 2.87217L81.8642 5.00302L82.8725 2.94544L86.87 7.45124L89.5412 6.46954L92.9227 11.6118L95.5855 11.0198Z" fill="#013581"/>
</svg>
