<svg width="146" height="330" viewBox="0 0 146 330" fill="none" xmlns="http://www.w3.org/2000/svg">
<path d="M31.2417 231.457C29.4929 239.661 27.4821 254.283 26.2323 268.271C24.7139 285.265 24.4064 299.511 25.7445 308.602C26.6291 314.612 32.2186 318.767 38.229 317.883C44.2394 316.998 48.3946 311.409 47.51 305.398C46.4933 298.491 46.7716 285.6 48.145 270.229C49.3221 257.056 51.2176 243.271 52.7583 236.043C54.0248 230.102 50.2348 224.258 44.2932 222.992C38.3515 221.725 32.5082 225.515 31.2417 231.457Z" fill="#F5D0C3"/>
<path d="M75.7284 246.729C77.249 254.079 78.7515 265.009 79.5983 275.509C80.581 287.695 80.626 298.338 79.6108 305.444C78.7516 311.458 82.9305 317.03 88.9446 317.889C94.9587 318.749 100.531 314.57 101.39 308.556C102.681 299.517 102.63 287.413 101.527 273.741C100.61 262.374 98.9855 250.553 97.2721 242.271C96.0412 236.322 90.2207 232.497 84.2716 233.728C78.3224 234.959 74.4975 240.78 75.7284 246.729Z" fill="#F5D0C3"/>
<path d="M65.2502 232L23.8751 210C23.8751 210 18.7896 219.965 15.1484 232C12.2163 241.691 10.4983 253.602 11.0001 256C12.1251 261.375 50.3752 269.25 55.8752 266.5C61.3752 263.75 65.2502 232 65.2502 232Z" fill="#EC0000"/>
<path d="M62.5235 230.875L105.023 207.75C105.023 207.75 109.808 221.094 113.023 234.25C115.874 245.917 117.271 257.438 116.273 259.375C114.15 263.5 74.772 270 71.0235 266.5C67.275 263 62.5235 230.875 62.5235 230.875Z" fill="#EC0000"/>
<path d="M65.0002 249.75C89.0246 249.75 108.5 238.557 108.5 224.75C108.5 210.943 89.0246 199.75 65.0002 199.75C40.9758 199.75 21.5002 210.943 21.5002 224.75C21.5002 238.557 40.9758 249.75 65.0002 249.75Z" fill="#B11515"/>
<path d="M100.241 314.625C101.441 313.725 102.116 301.875 102.116 298.875C91.6157 303.625 83.7407 299.75 79.9907 298.25C79.3657 302 79.1157 307.25 79.1157 311.25C80.3657 314.875 98.7407 315.75 100.241 314.625Z" fill="#EDF0F4"/>
<path d="M125.366 328.358C125.366 316.683 115.902 307.22 104.228 307.22H101.058H98.3427C98.3427 307.22 98.6242 311.933 89.4757 311.933C80.3275 311.933 79.0607 307.22 79.0607 307.22H77.906C77.2677 307.22 76.75 307.738 76.75 308.375V327.033C76.75 328.63 78.044 329.923 79.64 329.923H123.8C124.665 329.923 125.366 329.223 125.366 328.358Z" fill="#3B3F45"/>
<mask id="mask0_1_2" style="mask-type:alpha" maskUnits="userSpaceOnUse" x="76" y="307" width="50" height="23">
<path fill-rule="evenodd" clip-rule="evenodd" d="M125.366 328.358C125.366 316.683 115.902 307.22 104.228 307.22H101.058H94.981H88.904H82.827H76.75V327.033C76.75 328.63 78.044 329.923 79.64 329.923H123.8C124.665 329.923 125.366 329.223 125.366 328.358Z" fill="white"/>
</mask>
<g mask="url(#mask0_1_2)">
<path d="M119.727 315.598C123.372 313.538 121.943 317.62 125.218 319.353L132.153 332.648H76.958C75.6095 330.72 70.7367 320.73 74.6157 319.353C81.7407 316.825 94.297 325.568 99.4985 325.278C104.7 324.99 119.59 327.155 118.716 322.533C117.704 317.188 116.404 317.475 119.727 315.598Z" fill="#555D65"/>
<path d="M97.7287 318.195C99.454 318.665 100.844 318.603 101.632 318.003C103.662 316.44 102.362 314.058 101.811 313.125C102.803 314.268 103.789 315.415 104.559 316.665C105.772 318.617 106.286 320.763 105.468 322.135C104.001 324.615 100.474 323.47 98.226 322.472L77.3657 313.218L97.7287 318.195Z" fill="#7F8389"/>
</g>
<path d="M105.987 313.26C105.559 313.947 106.224 314.793 106.993 314.541L113.327 312.466L111.071 315.676C110.795 316.068 110.89 316.609 111.281 316.884C111.673 317.16 112.214 317.065 112.489 316.674L116.246 311.329C116.726 310.646 116.059 309.747 115.267 310.006L108.717 312.152L110.782 308.83C111.201 308.158 110.572 307.322 109.81 307.538L102.965 309.479C103.224 309.213 103.553 308.932 103.952 308.633C104.225 308.428 105.188 307.753 105.365 307.621C105.748 307.334 105.825 306.79 105.538 306.407C105.25 306.024 104.707 305.947 104.324 306.234C104.178 306.344 103.215 307.018 102.912 307.246C101.359 308.41 100.51 309.472 100.51 310.83C100.51 311.405 101.06 311.821 101.613 311.664L108.127 309.818L105.987 313.26Z" fill="#7F8389"/>
<path fill-rule="evenodd" clip-rule="evenodd" d="M107.995 306.654C106.929 307.365 105.56 307.792 104.411 307.792C103.865 307.792 103.462 307.694 103.174 307.494C102.905 307.311 102.733 307.036 102.634 306.655C102.547 306.323 102.514 305.919 102.512 305.335C102.511 305.126 102.513 304.979 102.522 304.521L102.522 304.517L102.523 304.447C102.53 304.074 102.533 303.853 102.533 303.605C102.533 301.037 104.213 299.126 106.434 299.126C107.515 299.126 108.396 299.577 109.005 300.406C109.59 301.201 109.902 302.32 109.902 303.605C109.902 304.789 109.196 305.856 107.995 306.654ZM104.255 304.558C104.247 304.997 104.245 305.138 104.246 305.33C104.247 305.653 104.259 305.889 104.281 306.055C104.32 306.057 104.363 306.058 104.411 306.058C105.212 306.058 106.248 305.735 107.035 305.21C107.792 304.707 108.168 304.139 108.168 303.605C108.168 302.667 107.956 301.906 107.608 301.434C107.323 301.046 106.96 300.859 106.434 300.859C105.224 300.859 104.267 301.948 104.267 303.605C104.267 303.866 104.264 304.096 104.257 304.479L104.255 304.554L104.255 304.558Z" fill="#7F8389"/>
<path fill-rule="evenodd" clip-rule="evenodd" d="M102.958 307.607L103.108 307.412L103.127 307.218C103.129 307.207 103.13 307.197 103.132 307.182C103.148 307.083 103.145 306.95 103.122 306.807C103.082 306.561 102.984 306.278 102.812 305.888C102.749 305.747 102.708 305.658 102.563 305.348L102.551 305.322C102.442 305.09 102.362 304.918 102.281 304.735C101.513 303.01 99.8016 302.24 98.2959 302.911C97.5623 303.238 97.0992 303.808 96.933 304.548C96.774 305.257 96.8956 306.099 97.279 306.96C97.6308 307.754 98.4267 308.257 99.484 308.431C100.42 308.582 101.476 308.454 102.255 308.107C102.607 307.953 102.817 307.791 102.958 307.607ZM98.6249 304.927C98.6715 304.72 98.7708 304.597 99.002 304.494C99.5897 304.232 100.302 304.553 100.697 305.44C100.784 305.637 100.868 305.818 100.991 306.079L101.003 306.103C101.132 306.38 101.171 306.464 101.226 306.588L101.245 306.632C100.802 306.758 100.248 306.798 99.7629 306.719C99.2365 306.633 98.9503 306.452 98.8635 306.256C98.622 305.714 98.554 305.243 98.6249 304.927Z" fill="#7F8389"/>
<path d="M26.7592 314.625C25.5592 313.725 24.8842 301.875 24.8842 298.875C35.3842 303.625 43.2592 299.75 47.0092 298.25C47.6342 302 47.8842 307.25 47.8842 311.25C46.6342 314.875 28.2592 315.75 26.7592 314.625Z" fill="#EDF0F4"/>
<path d="M1.63422 328.358C1.63422 316.683 11.098 307.22 22.7722 307.22H25.942H28.6572C28.6572 307.22 28.3757 311.933 37.5242 311.933C46.6725 311.933 47.9392 307.22 47.9392 307.22H49.094C49.7322 307.22 50.25 307.738 50.25 308.375V327.033C50.25 328.63 48.956 329.923 47.36 329.923H3.19997C2.33522 329.923 1.63422 329.223 1.63422 328.358Z" fill="#3B3F45"/>
<mask id="mask1_1_2" style="mask-type:alpha" maskUnits="userSpaceOnUse" x="1" y="307" width="50" height="23">
<path fill-rule="evenodd" clip-rule="evenodd" d="M1.63422 328.358C1.63422 316.683 11.098 307.22 22.7722 307.22H25.942H32.019H38.096H44.173H50.25V327.033C50.25 328.63 48.956 329.923 47.36 329.923H3.19997C2.33522 329.923 1.63422 329.223 1.63422 328.358Z" fill="white"/>
</mask>
<g mask="url(#mask1_1_2)">
<path d="M7.27273 315.598C3.62773 313.538 5.05723 317.62 1.78198 319.353L-5.15352 332.648H50.042C51.3905 330.72 56.2632 320.73 52.3842 319.353C45.2592 316.825 32.703 325.568 27.5015 325.278C22.2997 324.99 7.40948 327.155 8.28398 322.533C9.29548 317.188 10.596 317.475 7.27273 315.598Z" fill="#555D65"/>
<path d="M29.2712 318.195C27.546 318.665 26.1555 318.603 25.3675 318.003C23.338 316.44 24.6375 314.058 25.1887 313.125C24.1965 314.268 23.2107 315.415 22.4412 316.665C21.2282 318.617 20.7135 320.763 21.5317 322.135C22.9992 324.615 26.526 323.47 28.774 322.472L49.6342 313.218L29.2712 318.195Z" fill="#7F8389"/>
</g>
<path d="M21.0132 313.26C21.4406 313.947 20.7763 314.793 20.0071 314.541L13.6729 312.466L15.9293 315.676C16.2046 316.068 16.1102 316.609 15.7185 316.884C15.3268 317.16 14.786 317.065 14.5107 316.674L10.7539 311.329C10.2744 310.646 10.9406 309.747 11.7331 310.006L18.2827 312.152L16.2175 308.83C15.7992 308.158 16.428 307.322 17.1902 307.538L24.0344 309.479C23.7758 309.213 23.4472 308.932 23.048 308.633C22.7748 308.428 21.8117 307.753 21.6351 307.621C21.2522 307.334 21.1747 306.79 21.4621 306.407C21.7495 306.024 22.2929 305.947 22.6758 306.234C22.822 306.344 23.7849 307.018 24.0884 307.246C25.6412 308.41 26.4902 309.472 26.4902 310.83C26.4902 311.405 25.9402 311.821 25.3868 311.664L18.8731 309.818L21.0132 313.26Z" fill="#7F8389"/>
<path fill-rule="evenodd" clip-rule="evenodd" d="M19.0047 306.654C20.0708 307.365 21.44 307.792 22.5887 307.792C23.1347 307.792 23.5378 307.694 23.8257 307.494C24.0946 307.311 24.2668 307.036 24.3659 306.655C24.4527 306.323 24.4862 305.919 24.4879 305.335C24.4886 305.126 24.4865 304.979 24.4781 304.521L24.478 304.517L24.4768 304.447C24.47 304.074 24.4672 303.853 24.4672 303.605C24.4672 301.037 22.7873 299.126 20.566 299.126C19.4853 299.126 18.6042 299.577 17.9945 300.406C17.4103 301.201 17.098 302.32 17.098 303.605C17.098 304.789 17.804 305.856 19.0047 306.654ZM22.7447 304.558C22.7527 304.997 22.7546 305.138 22.754 305.33C22.7531 305.653 22.7407 305.889 22.7185 306.055C22.68 306.057 22.6367 306.058 22.5887 306.058C21.7876 306.058 20.752 305.735 19.9653 305.21C19.2076 304.707 18.8319 304.139 18.8319 303.605C18.8319 302.667 19.0442 301.906 19.3915 301.434C19.6764 301.046 20.0403 300.859 20.566 300.859C21.7764 300.859 22.7333 301.948 22.7333 303.605C22.7333 303.866 22.7362 304.096 22.7432 304.479L22.7446 304.554L22.7447 304.558Z" fill="#7F8389"/>
<path fill-rule="evenodd" clip-rule="evenodd" d="M24.0422 307.607L23.8921 307.412L23.8727 307.218C23.8709 307.207 23.8696 307.197 23.8676 307.182C23.8515 307.083 23.8544 306.95 23.878 306.807C23.9176 306.561 24.0159 306.278 24.1882 305.888C24.2504 305.747 24.2915 305.658 24.4366 305.348L24.449 305.322C24.5583 305.09 24.6376 304.918 24.7191 304.735C25.4866 303.01 27.1984 302.24 28.7041 302.911C29.4376 303.238 29.9008 303.808 30.0669 304.548C30.226 305.257 30.1043 306.099 29.7209 306.96C29.3691 307.754 28.5732 308.257 27.5159 308.431C26.5795 308.582 25.5237 308.454 24.7449 308.107C24.3931 307.953 24.1831 307.791 24.0422 307.607ZM28.3751 304.927C28.3284 304.72 28.2291 304.597 27.998 304.494C27.4102 304.232 26.698 304.553 26.3033 305.44C26.2156 305.637 26.1318 305.818 26.0088 306.079L25.9974 306.103C25.8681 306.38 25.8293 306.464 25.7744 306.588L25.7552 306.632C26.1983 306.758 26.7521 306.798 27.237 306.719C27.7634 306.633 28.0496 306.452 28.1364 306.256C28.378 305.714 28.4459 305.243 28.3751 304.927Z" fill="#7F8389"/>
<path d="M19.0381 129.909C15.3041 135.62 9.61248 148.351 5.89496 160.455C3.4574 168.391 1.78102 176.138 1.06337 183.489C0.186562 192.47 0.748147 200.706 3.09207 208.05C5.19103 214.627 12.2241 218.257 18.8008 216.158C25.3775 214.059 29.0075 207.026 26.9086 200.45C24.515 192.95 25.6558 181.266 29.7931 167.795C31.4773 162.312 33.5687 156.824 35.7985 151.836C37.5067 148.015 39.1768 144.792 39.9624 143.591C43.7403 137.813 42.1189 130.066 36.3408 126.288C30.5627 122.51 22.8161 124.131 19.0381 129.909Z" fill="#F5D0C3"/>
<path d="M95.5379 142.841C96.0675 143.651 98.3517 146.949 98.7649 147.559C100.184 149.656 101.381 151.543 102.508 153.508C108.609 164.145 110.795 173.947 107.842 183.199C105.743 189.776 109.373 196.809 115.949 198.908C122.526 201.007 129.559 197.377 131.658 190.8C134.655 181.41 134.848 171.846 132.725 162.332C131.077 154.941 128.143 147.956 124.195 141.071C122.725 138.507 121.208 136.116 119.466 133.543C118.888 132.69 116.774 129.637 116.462 129.159C112.684 123.381 104.937 121.76 99.1594 125.538C93.3813 129.316 91.7599 137.063 95.5379 142.841Z" fill="#F5D0C3"/>
<path d="M41.6252 118.25V126.25L38.2502 139.5L37.2502 154.5L27.3752 165.375L20.2502 129.625L22.1252 119.375L27.3752 115.25L31.6252 118.25L35.1252 116.25L41.6252 118.25Z" fill="#15B1FF"/>
<path d="M93.2502 119V127L96.6252 140.25L97.6252 155.25L107.5 166.125L114.625 130.375L112.75 120.125L107.5 116L103.25 119L99.7502 117L93.2502 119Z" fill="#15B1FF"/>
<path d="M31.2068 128.221C32.4836 120.734 38.9426 115.282 46.5376 115.214L70.1186 115.004L92.2593 116.883C99.3158 117.483 105.098 122.707 106.243 129.696C108.754 145.03 112.689 172.074 112.689 190.954C112.689 218.68 118.161 221.332 109.689 224.965C101.218 228.598 33.4428 228.087 24.1893 222.454C14.9359 216.822 20.6893 210.954 20.6893 199.454C20.6893 191.012 27.5553 149.631 31.2068 128.221Z" fill="#619DF8"/>
<rect x="46.6718" y="153.504" width="43.75" height="35.25" fill="#232426"/>
<path fill-rule="evenodd" clip-rule="evenodd" d="M88.1718 150.004H48.6718C45.6342 150.004 43.1718 152.466 43.1718 155.504V186.754C43.1718 189.792 45.6342 192.254 48.6718 192.254H88.1718C91.2093 192.254 93.6718 189.792 93.6718 186.754V155.504C93.6718 152.466 91.2093 150.004 88.1718 150.004ZM46.6718 155.504C46.6718 154.399 47.5672 153.504 48.6718 153.504H88.1718C89.2763 153.504 90.1718 154.399 90.1718 155.504V186.754C90.1718 187.859 89.2763 188.754 88.1718 188.754H48.6718C47.5672 188.754 46.6718 187.859 46.6718 186.754V155.504Z" fill="#07FF4C"/>
<path d="M50.706 164.977C50.0032 165.416 49.7889 166.341 50.2274 167.044C50.6659 167.747 51.5911 167.961 52.294 167.523L58.7613 163.488C59.707 162.898 59.7016 161.519 58.7513 160.936L52.284 156.971C51.5778 156.538 50.6542 156.76 50.2212 157.466C49.7882 158.172 50.0097 159.096 50.716 159.529L55.1156 162.226L50.706 164.977Z" fill="#FF2A2A"/>
<path d="M59.75 169.75H67.4826C68.3111 169.75 68.9826 169.078 68.9826 168.25C68.9826 167.422 68.3111 166.75 67.4826 166.75H59.75C58.9216 166.75 58.25 167.422 58.25 168.25C58.25 169.078 58.9216 169.75 59.75 169.75Z" fill="#FF2626"/>
<path d="M67.1252 141C75.3405 141 82.0002 133.893 82.0002 125.125C82.0002 116.357 75.3405 109.25 67.1252 109.25C58.91 109.25 52.2502 116.357 52.2502 125.125C52.2502 133.893 58.91 141 67.1252 141Z" fill="#454748"/>
<rect x="57.7603" y="107.254" width="19.2142" height="28.8213" rx="9.60707" fill="#EBBAAA"/>
<rect x="57.75" y="175.445" width="78.1072" height="55.25" rx="8.5" transform="rotate(-7.5 57.75 175.445)" fill="#BCC4CF"/>
<rect x="60.5" y="177.195" width="78.1072" height="55.25" rx="7.25" transform="rotate(-7.5 60.5 177.195)" fill="#D3D8DF"/>
<path d="M107.708 196.755C107.19 193.016 109.28 192.642 109.367 192.57C107.956 190.996 106.08 190.967 105.422 191.027C103.835 191.074 102.486 192.333 101.69 192.438C100.897 192.543 99.5515 191.798 98.2562 191.992C96.5535 192.242 95.1055 193.413 94.426 195.058C93.058 198.369 94.9772 202.754 97.0347 205.021C98.0395 206.132 99.228 207.372 100.545 207.149C101.811 206.931 102.191 206.092 103.731 205.89C105.271 205.687 105.811 206.456 107.156 206.25C108.523 206.045 109.231 204.71 109.907 203.374C110.691 201.828 110.918 200.473 110.932 200.4C110.9 200.39 108.062 199.247 107.706 196.755L107.708 196.755Z" fill="white"/>
<path d="M101.455 191.681C101.089 188.905 103.043 186.356 105.822 185.99C106.187 188.769 104.231 191.316 101.455 191.681Z" fill="white"/>
<path d="M100.464 204.841C99.6863 210.936 103.996 216.507 110.091 217.285C117.082 218.178 123.246 215.203 127.487 209.74C130.47 205.897 132.454 200.955 133.667 195.2C135.72 185.459 135.465 173.393 133.052 163.591C131.584 157.625 125.557 153.979 119.591 155.447C113.625 156.916 109.979 162.943 111.447 168.909C113.068 175.495 113.251 184.176 111.895 190.612C111.479 192.588 110.955 194.151 110.46 195.171C105.386 195.643 101.136 199.576 100.464 204.841Z" fill="#F5D0C3"/>
<path opacity="0.5" d="M106 86.3079C111.523 86.3079 116 81.4389 116 75.4329C116 69.4266 111.523 64.5579 106 64.5579C100.477 64.5579 96 69.4266 96 75.4329C96 81.4389 100.477 86.3079 106 86.3079Z" fill="#C99584"/>
<path opacity="0.5" d="M31 86.3079C25.4771 86.3079 21 81.4389 21 75.4329C21 69.4266 25.4771 64.5579 31 64.5579C36.5229 64.5579 41 69.4266 41 75.4329C41 81.4389 36.5229 86.3079 31 86.3079Z" fill="#C99584"/>
<path d="M31 51.2494C31 30.5389 47.7892 13.7495 68.5 13.7495C89.2107 13.7495 106 30.5389 106 51.2494V64.9609C106 67.1887 105.83 69.4129 105.49 71.6147L103.199 86.4912C100.567 103.574 85.8675 116.182 68.5835 116.182C51.6667 116.182 37.1675 104.091 34.1293 87.4487L31.7106 74.1997C31.2378 71.6102 31 68.9832 31 66.3509V51.2494Z" fill="#F4D5CC"/>
<path d="M77.2854 49.7158C77.3645 48.3608 78.5086 47.321 79.8569 47.3625L79.9268 47.3656L94.9268 48.2406C96.3052 48.3211 97.3574 49.5036 97.277 50.882C97.1979 52.237 96.0538 53.2768 94.7055 53.2353L94.6356 53.2322L79.6356 52.3572C78.2572 52.2768 77.205 51.0942 77.2854 49.7158Z" fill="#393939"/>
<path d="M57.1356 47.3656C58.514 47.2852 59.6966 48.3374 59.777 49.7158C59.856 51.0708 58.8405 52.2366 57.4966 52.3521L57.4268 52.3572L42.4268 53.2322C41.0484 53.3126 39.8659 52.2604 39.7854 50.882C39.7064 49.527 40.7219 48.3612 42.0658 48.2457L42.1356 48.2406L57.1356 47.3656Z" fill="#393939"/>
<path fill-rule="evenodd" clip-rule="evenodd" d="M76.5312 56.1689H96.5312C98.4643 56.1689 100.031 57.7359 100.031 59.6689V72.1689C100.031 76.173 96.7853 79.4189 92.7812 79.4189H86.5312C79.0755 79.4189 73.0312 73.3747 73.0312 65.9189V59.6689C73.0312 57.7359 74.5982 56.1689 76.5312 56.1689ZM96.5312 58.1689H76.5312C75.7028 58.1689 75.0312 58.8405 75.0312 59.6689V65.9189C75.0312 72.2702 80.18 77.4189 86.5312 77.4189H92.7812C95.6807 77.4189 98.0312 75.0684 98.0312 72.1689V59.6689C98.0312 58.8405 97.3597 58.1689 96.5312 58.1689Z" fill="white" fill-opacity="0.75"/>
<path fill-rule="evenodd" clip-rule="evenodd" d="M40.5312 56.1689H60.5312C62.4643 56.1689 64.0312 57.7359 64.0312 59.6689V65.9189C64.0312 73.3747 57.987 79.4189 50.5312 79.4189H44.2812C40.2772 79.4189 37.0312 76.173 37.0312 72.1689V59.6689C37.0312 57.7359 38.5982 56.1689 40.5312 56.1689ZM60.5312 58.1689H40.5312C39.7028 58.1689 39.0312 58.8405 39.0312 59.6689V72.1689C39.0312 75.0684 41.3818 77.4189 44.2812 77.4189H50.5312C56.8825 77.4189 62.0312 72.2702 62.0312 65.9189V59.6689C62.0312 58.8405 61.3597 58.1689 60.5312 58.1689Z" fill="white" fill-opacity="0.75"/>
<rect x="62.2812" y="59.6689" width="12.5" height="2" fill="white" fill-opacity="0.75"/>
<path fill-rule="evenodd" clip-rule="evenodd" d="M78.565 89.3201V92.7866C78.565 98.1116 74.2483 102.429 68.923 102.429C63.598 102.429 59.2812 98.1116 59.2812 92.7866V89.3201H78.565Z" fill="#393939"/>
<mask id="mask2_1_2" style="mask-type:alpha" maskUnits="userSpaceOnUse" x="59" y="87" width="20" height="16">
<path fill-rule="evenodd" clip-rule="evenodd" d="M78.4375 87.6689C78.5213 88.1804 78.565 88.7054 78.565 89.2407V92.7864C78.565 98.1114 74.2483 102.428 68.9233 102.428C63.598 102.428 59.2812 98.1114 59.2812 92.7864V89.2407C59.2812 88.7054 59.325 88.1804 59.4087 87.6689H78.4375Z" fill="white"/>
</mask>
<g mask="url(#mask2_1_2)">
<path d="M68.4087 105.821C65.1974 105.821 62.5942 104.403 62.5942 102.654C62.5942 100.906 65.1974 99.4878 68.4087 99.4878C71.62 99.4878 74.2233 100.906 74.2233 102.654C74.2233 104.403 71.62 105.821 68.4087 105.821Z" fill="#FF6C6C"/>
<rect width="19.2837" height="3.97675" transform="matrix(-1 0 0 1 78.5649 88.8198)" fill="white"/>
</g>
<path d="M28.6251 39.9327C28.4575 24.6802 41.8757 19.6828 39.5005 22.5577C37.125 25.4324 42.7507 32.5577 39.5005 34.8077C36.25 37.0577 39.8752 44.3079 38.1252 47.0579C36.3752 49.8079 33.5815 49.1829 32.0002 54.5579C30.4189 59.9329 31.7502 70.3972 31.7502 70.3972C31.8752 70.6829 31.7502 71.0579 31.5002 71.0579C31.2502 71.0579 30.8752 70.9329 30.7736 70.3972C30.7736 70.3972 28.875 62.6827 28.6251 39.9327Z" fill="#131416"/>
<path d="M108.248 40.3162C108.403 26.2317 96.0175 21.6171 98.21 24.2719C100.402 26.9267 95.2097 33.5059 98.21 35.5837C101.21 37.6614 97.864 44.3562 99.4795 46.8957C101.095 49.4349 103.673 48.8579 105.133 53.8212C106.593 58.7847 105.364 68.4474 105.364 68.4474C105.248 68.7114 105.364 69.0577 105.595 69.0577C105.825 69.0577 106.171 68.9422 106.265 68.4474C106.265 68.4474 108.018 61.3239 108.248 40.3162Z" fill="#131416"/>
<path d="M69.75 30.8072C48.9998 30.8072 34.6969 34.1822 31.5001 41.1042C28.3034 48.0262 29.0351 50.1822 28.8751 48.3072C28.7152 46.4322 28.5001 44.3387 28.5001 40.5572C28.5001 16.0102 45.6253 12.3067 61.125 13.8069C76.625 15.307 88.7153 30.8072 69.75 30.8072Z" fill="#212B3A"/>
<path d="M67.081 30.6847C86.1182 30.6847 105.215 23.5187 106 37.4322C109 42.1822 107.875 47.6824 108.25 39.9322C109.865 6.55735 59 -15.9108 33 22.9642C33 22.9642 48.0417 30.6847 67.081 30.6847Z" fill="#050A11"/>
<path d="M67.4819 67.8789L71.0181 70.2364C69.8163 72.0392 68.875 74.7453 68.875 76.7139C68.875 78.6121 69.5605 79.4101 71.6592 79.4322L71.75 79.4326V83.6826C67.1142 83.6826 64.625 80.8823 64.625 76.7139C64.625 73.8901 65.7997 70.4623 67.3945 68.0116L67.4819 67.8789Z" fill="#EBBAAA"/>
<path d="M84.25 59.9189C85.8814 59.9189 87.2086 61.2211 87.2491 62.8427L87.25 62.9189V66.4189C87.25 68.0758 85.9069 69.4189 84.25 69.4189C82.6186 69.4189 81.2914 68.1168 81.2509 66.4952L81.25 66.4189V62.9189C81.25 61.2621 82.5931 59.9189 84.25 59.9189Z" fill="black"/>
<path d="M52.875 59.9189C54.5064 59.9189 55.8336 61.2211 55.8741 62.8427L55.875 62.9189V66.4189C55.875 68.0758 54.5319 69.4189 52.875 69.4189C51.2436 69.4189 49.9164 68.1168 49.8759 66.4952L49.875 66.4189V62.9189C49.875 61.2621 51.2181 59.9189 52.875 59.9189Z" fill="black"/>
<path d="M58.5 32.4324C48.875 30.0889 36.375 35.4324 28.625 36.8074C28.625 19.9324 46.625 2.68234 67.25 2.18234C87.875 1.68233 100.625 15.3073 103.875 22.0573C105.139 24.6824 102.25 29.5394 95.5 32.4324C87.625 35.8074 72.875 35.9324 58.5 32.4324Z" fill="#151C25"/>
<path d="M58.2553 37.5177C67.5113 31.8612 71.7618 30.7015 76.2185 28.1302C73.1333 26.759 65.123 22.9281 61.0093 26.2192C59.249 28.516 56.1093 32.3752 58.2553 37.5177Z" fill="#222222"/>
<path d="M40.7197 40.1032C54.4755 32.1327 60.432 34.704 64.8887 32.1327C61.8032 30.7615 68.4882 20.963 46.5047 25.7047C39.9485 27.119 38.5737 34.961 40.7197 40.1032Z" fill="#151C25"/>
<path d="M99.5855 11.0198L102.074 19.86L69.2702 14.7798L31.7812 21.633L31.8603 17.9956L34.5344 16.884L34.5965 14.0261L37.9677 14.0994L38.0637 9.68257L42.3977 9.77679L43.4345 6.42014L47.287 6.50389L49.648 3.17607L53.5985 4.30167L54.8475 2.24934L58.941 2.33832L58.9917 0L64.4792 2.45869L65.9747 0.151782L68.3317 2.54244L70.7905 0.256463L75.3147 2.69422L78.255 0.418712L81.3345 2.82507L83.5015 2.87217L85.8642 5.00302L86.8725 2.94544L90.87 7.45124L93.5412 6.46954L96.9227 11.6118L99.5855 11.0198Z" fill="#090D12"/>
</svg>
